{"glyphs":{":":{"x_min":0,"x_max":315,"ha":315,"o":"m 60 391 q 60 430 88 457 q 116 485 155 485 q 193 485 221 457 q 249 430 249 391 q 249 353 221 325 q 194 297 155 297 q 115 297 88 324 q 60 352 60 391 z m 60 78 q 60 117 88 144 q 116 172 155 172 q 193 172 221 144 q 249 117 249 78 q 249 40 221 12 q 194 -16 155 -16 q 115 -16 88 11 q 60 39 60 78 z"},"$":{"x_min":0,"x_max":583,"ha":583,"o":"m 262 453 l 262 650 q 217 646 190 619 q 164 593 164 553 q 164 514 188 489 q 213 464 262 453 z m 319 436 q 447 400 499 348 q 552 295 552 205 q 552 114 490 56 q 428 -1 319 -12 l 319 -136 l 261 -136 l 261 -12 q 154 -10 89 36 q 24 82 24 154 q 24 195 49 221 q 74 248 112 248 q 147 248 169 226 q 191 204 191 168 q 191 135 169 114 q 147 92 147 88 q 147 71 181 54 q 216 38 262 37 l 262 282 q 148 308 96 358 q 44 408 44 490 q 44 576 104 635 q 164 693 262 700 l 262 803 l 319 803 l 319 700 q 423 695 482 655 q 541 616 541 551 q 541 514 519 491 q 496 469 459 469 q 424 469 401 490 q 378 510 378 540 q 378 564 391 584 q 404 604 404 607 q 404 623 380 635 q 355 648 319 650 z m 319 37 q 371 42 401 73 q 431 105 431 156 q 431 201 407 225 q 383 250 319 267 z"},"?":{"x_min":0,"x_max":521,"ha":521,"o":"m 257 222 l 210 222 l 210 247 q 210 299 218 328 q 227 357 246 388 q 251 396 261 411 q 321 502 321 570 q 321 628 294 660 q 268 692 219 692 q 190 692 168 681 q 147 670 147 657 q 147 651 174 626 q 201 602 201 569 q 201 532 179 511 q 157 490 118 490 q 77 490 52 516 q 27 541 27 582 q 27 648 91 695 q 154 741 249 741 q 363 741 425 695 q 487 649 487 565 q 487 470 342 367 l 335 362 q 284 326 270 301 q 257 277 257 238 z m 233 173 q 271 173 299 145 q 327 117 327 79 q 327 40 300 12 q 272 -15 233 -15 q 194 -15 167 13 q 139 41 139 79 q 139 118 167 145 q 194 173 233 173 z"},"<":{"x_min":0,"x_max":833,"ha":833,"o":"m 704 583 l 704 476 l 268 298 l 704 120 l 704 13 l 129 250 l 129 347 z"},"'":{"x_min":0,"x_max":178,"ha":178,"o":"m 99 416 l 79 416 l 40 641 q 39 647 39 651 q 38 656 38 659 q 38 685 52 700 q 65 715 89 715 q 112 715 126 701 q 139 687 139 661 q 139 653 139 649 q 139 645 138 641 z"},"=":{"x_min":0,"x_max":833,"ha":833,"o":"m 124 242 l 709 242 l 709 145 l 124 145 z m 124 452 l 709 452 l 709 355 l 124 355 z"},"a":{"x_min":0,"x_max":606,"ha":606,"o":"m 372 242 q 283 228 246 200 q 208 172 208 122 q 208 91 225 73 q 242 55 270 55 q 316 55 344 90 q 372 124 372 184 z m 527 115 q 527 91 535 81 q 544 71 563 71 q 572 71 583 76 q 594 81 597 81 q 603 81 606 77 q 610 73 610 66 q 610 35 574 9 q 539 -17 489 -17 q 452 -17 425 3 q 399 22 394 54 q 353 20 301 1 q 249 -17 194 -17 q 122 -17 83 14 q 43 45 43 102 q 43 178 122 223 q 202 269 373 292 l 373 346 q 373 399 352 421 q 331 443 282 443 q 250 443 229 432 q 207 422 207 408 q 207 405 220 388 q 233 372 233 351 q 233 323 211 305 q 188 288 153 288 q 117 288 93 309 q 69 330 69 362 q 69 424 129 459 q 189 493 299 493 q 360 493 407 481 q 454 468 484 444 q 508 425 517 402 q 527 378 527 329 z"},"L":{"x_min":0,"x_max":720,"ha":720,"o":"m 687 0 l 19 0 l 19 53 l 70 53 q 100 53 111 63 q 121 73 121 105 l 121 617 q 121 650 111 660 q 101 670 71 670 l 19 670 l 19 722 l 415 722 l 415 670 l 352 670 q 322 670 312 660 q 301 649 301 617 l 301 108 q 301 76 313 65 q 325 55 377 55 q 498 55 559 105 q 621 155 650 278 l 700 273 z"},"3":{"x_min":0,"x_max":583,"ha":583,"o":"m 353 364 q 444 355 494 309 q 544 262 544 187 q 544 93 473 38 q 402 -17 279 -17 q 168 -17 101 28 q 34 74 34 147 q 34 191 59 218 q 84 245 125 245 q 165 245 189 223 q 213 202 213 167 q 213 130 188 102 q 162 74 162 71 q 162 54 188 42 q 213 31 254 31 q 313 31 343 70 q 372 110 372 189 q 372 261 350 299 q 328 336 284 336 q 269 336 244 332 q 220 328 210 328 q 192 328 182 337 q 172 346 172 361 q 172 379 182 388 q 192 398 211 398 q 219 398 242 395 q 266 391 281 391 q 323 391 343 424 q 363 457 363 527 q 363 590 338 622 q 313 655 266 655 q 230 655 207 643 q 184 630 184 612 q 184 603 208 581 q 231 559 231 529 q 231 495 208 473 q 185 452 147 452 q 107 452 84 477 q 60 502 60 544 q 60 615 123 660 q 187 704 290 704 q 396 704 460 655 q 524 606 524 525 q 524 466 482 426 q 439 386 353 364 z"},";":{"x_min":0,"x_max":315,"ha":315,"o":"m 67 -134 q 113 -103 134 -73 q 156 -44 156 -13 l 156 -5 q 148 -6 142 -7 q 136 -8 130 -8 q 97 -8 77 14 q 56 37 56 72 q 56 116 82 142 q 107 169 150 169 q 197 169 223 138 q 250 106 250 51 q 250 -10 211 -65 q 171 -120 91 -171 z m 57 391 q 57 430 85 457 q 113 485 152 485 q 190 485 218 457 q 246 430 246 391 q 246 353 218 325 q 190 297 152 297 q 112 297 85 324 q 57 352 57 391 z"},"J":{"x_min":0,"x_max":646,"ha":646,"o":"m 353 617 q 353 649 343 660 q 332 670 302 670 l 251 670 l 251 722 l 632 722 l 632 670 l 582 670 q 552 670 542 660 q 531 649 531 617 l 531 278 q 531 204 521 164 q 512 124 491 90 q 457 37 396 9 q 335 -19 254 -19 q 136 -19 69 35 q 2 90 2 186 q 2 250 37 291 q 72 331 126 331 q 174 331 201 303 q 228 275 228 225 q 228 183 205 158 q 182 133 143 133 q 130 133 117 135 q 104 138 104 138 q 97 138 93 132 q 89 126 89 116 q 89 87 124 66 q 159 44 209 44 q 287 44 320 95 q 353 147 353 275 z"},"V":{"x_min":0,"x_max":756,"ha":756,"o":"m 426 -18 l 344 -18 l 82 628 q 72 651 54 660 q 37 670 3 670 l 3 722 l 355 722 l 355 670 l 320 670 q 297 670 285 664 q 273 657 273 645 q 273 641 275 634 q 276 628 281 616 l 444 201 l 584 557 q 589 571 592 583 q 594 595 594 607 q 594 639 572 653 q 549 667 496 669 l 496 722 l 787 722 l 787 671 q 745 669 711 639 q 678 609 655 551 z"},"\"":{"x_min":0,"x_max":345,"ha":345,"o":"m 265 416 l 245 416 l 206 641 q 205 647 205 651 q 204 656 204 659 q 204 685 218 700 q 231 715 255 715 q 279 715 292 700 q 306 686 306 661 q 306 658 306 654 q 305 649 304 641 z m 99 416 l 79 416 l 40 641 q 40 645 39 648 q 39 652 39 659 q 39 685 53 700 q 66 715 89 715 q 112 715 126 701 q 139 687 139 661 q 139 653 139 649 q 139 645 138 641 z"},"7":{"x_min":0,"x_max":583,"ha":583,"o":"m 119 400 l 66 407 l 102 704 q 147 697 203 694 q 258 691 331 691 q 389 691 448 693 q 507 695 568 699 l 568 664 q 489 505 451 397 q 413 290 407 207 q 405 186 405 148 q 404 72 391 42 q 378 11 356 -4 q 334 -19 302 -19 q 258 -19 233 8 q 208 36 208 83 q 208 183 398 460 q 438 518 459 549 q 422 546 385 545 q 348 544 310 544 q 274 544 236 545 q 198 547 196 547 q 167 547 156 536 q 146 525 139 491 z"},"S":{"x_min":0,"x_max":694,"ha":694,"o":"m 77 -12 l 68 278 l 119 278 q 162 159 232 98 q 302 36 393 36 q 458 36 496 67 q 533 99 533 153 q 533 177 523 197 q 513 217 496 229 q 471 247 371 270 q 334 279 314 284 q 180 317 122 371 q 65 425 65 515 q 65 613 137 677 q 209 740 322 740 q 373 740 419 727 q 465 713 509 686 l 559 735 l 603 735 l 615 471 l 568 471 q 515 586 457 637 q 398 688 321 688 q 257 688 222 659 q 187 631 187 580 q 187 506 357 469 q 389 462 406 458 q 487 439 523 423 q 559 406 585 381 q 615 352 632 309 q 648 266 648 215 q 648 108 578 46 q 507 -17 387 -17 q 324 -17 274 -1 q 224 14 179 48 l 120 -12 z"},"}":{"x_min":0,"x_max":500,"ha":500,"o":"m 84 740 q 199 740 241 705 q 283 669 283 571 l 283 477 q 283 396 311 366 q 338 336 414 329 l 414 292 q 338 285 311 255 q 283 225 283 144 l 283 50 q 283 -47 242 -83 q 200 -119 90 -119 l 84 -119 l 84 -90 q 142 -89 164 -63 q 186 -38 186 39 l 186 105 q 186 215 212 255 q 238 294 308 310 q 238 326 212 366 q 186 406 186 516 l 186 581 q 186 657 164 683 q 142 709 84 710 z"},"Z":{"x_min":0,"x_max":663,"ha":663,"o":"m 346 668 q 238 668 185 625 q 132 582 99 471 l 47 473 l 62 722 l 631 722 l 631 671 l 231 54 l 340 54 q 441 54 493 102 q 545 150 581 274 l 633 274 l 615 0 l 23 0 l 23 52 l 427 668 z"},"x":{"x_min":0,"x_max":600,"ha":600,"o":"m 307 476 l 307 426 q 285 425 274 420 q 264 415 264 405 q 264 398 276 384 q 278 381 279 380 l 334 317 l 393 372 q 398 376 401 383 q 404 390 404 397 q 404 412 391 419 q 378 426 350 426 l 343 426 l 343 476 l 588 476 l 588 427 l 585 427 q 556 427 531 415 q 506 403 475 374 l 370 275 l 537 78 q 548 64 561 58 q 574 52 591 52 l 598 52 l 598 0 l 284 0 l 284 52 q 315 55 324 59 q 334 63 334 72 q 334 76 332 81 q 330 85 324 93 l 261 169 l 197 104 q 192 99 189 92 q 186 85 186 79 q 186 65 202 59 q 217 52 248 52 l 248 0 l 10 0 l 10 52 q 33 55 53 65 q 73 76 106 105 l 225 212 l 71 393 q 54 412 41 418 q 27 425 10 425 l 10 476 z"},")":{"x_min":0,"x_max":407,"ha":407,"o":"m 69 -84 q 140 -33 173 60 q 207 153 207 297 q 207 450 175 543 q 142 636 69 697 l 67 737 q 195 675 267 561 q 339 446 339 304 q 339 165 266 50 q 193 -64 67 -123 z"},"&":{"x_min":0,"x_max":819,"ha":819,"o":"m 460 50 q 406 15 348 -3 q 290 -21 232 -21 q 137 -21 75 37 q 14 95 14 183 q 14 255 64 310 q 114 364 219 406 q 197 444 186 479 q 175 514 175 547 q 175 630 233 686 q 292 741 381 741 q 471 741 524 702 q 577 663 577 598 q 577 543 535 500 q 493 457 401 419 q 438 356 473 304 q 509 251 545 206 q 567 232 580 260 q 593 289 593 310 q 593 334 573 347 q 553 359 513 359 l 503 359 l 503 409 l 774 409 l 774 359 q 733 359 710 349 q 687 338 671 314 q 664 303 635 248 q 605 193 577 160 q 610 120 632 104 q 654 88 677 88 q 704 88 723 110 q 742 133 752 178 l 798 162 q 779 70 736 26 q 692 -17 618 -17 q 577 -17 538 0 q 500 16 460 50 z m 373 462 q 424 487 448 519 q 471 551 471 595 q 471 636 449 661 q 426 686 389 686 q 353 686 333 667 q 314 647 314 611 q 314 582 328 546 q 343 509 373 462 z m 418 89 q 380 129 335 197 q 291 265 241 359 q 214 344 200 321 q 186 297 186 266 q 186 241 196 210 q 205 179 222 150 q 248 107 279 85 q 311 64 348 64 q 368 64 386 71 q 404 77 418 89 z"},"_":{"x_min":0,"x_max":500,"ha":500,"o":"m 0 -136 l 500 -136 l 500 -236 l 0 -236 z"},"v":{"x_min":0,"x_max":596,"ha":596,"o":"m 64 385 q 53 409 41 417 q 28 425 6 425 l 2 425 l 2 476 l 287 476 l 287 425 l 266 423 q 249 421 241 417 q 234 412 234 402 q 234 397 237 388 q 240 379 245 369 l 350 148 l 432 338 q 436 348 438 360 q 441 372 441 381 q 441 399 427 410 q 413 421 388 423 l 362 425 l 362 476 l 591 476 l 591 423 q 559 421 541 408 q 523 394 505 354 l 343 -10 l 258 -10 z"},"O":{"x_min":0,"x_max":829,"ha":829,"o":"m 237 361 q 237 196 280 117 q 324 38 414 38 q 503 38 548 118 q 592 198 592 361 q 592 525 548 605 q 504 684 414 684 q 324 684 281 604 q 237 524 237 361 z m 37 361 q 37 441 63 510 q 89 579 139 631 q 192 686 260 713 q 328 740 414 740 q 503 740 570 713 q 638 686 692 629 q 741 578 766 509 q 792 441 792 361 q 792 278 769 216 q 745 153 694 100 q 638 42 568 12 q 497 -17 414 -17 q 330 -17 262 11 q 194 39 138 98 q 85 152 61 215 q 37 278 37 361 z"},"(":{"x_min":0,"x_max":407,"ha":407,"o":"m 336 698 q 266 647 233 554 q 199 460 199 316 q 199 163 231 70 q 263 -23 336 -84 l 338 -123 q 209 -61 138 53 q 66 167 66 310 q 66 449 139 564 q 212 679 338 737 z"},"C":{"x_min":0,"x_max":777,"ha":777,"o":"m 722 245 q 696 117 615 49 q 533 -19 405 -19 q 340 -19 284 -1 q 228 16 182 51 q 111 105 74 185 q 37 264 37 361 q 37 437 61 502 q 85 568 133 622 q 185 681 254 709 q 322 738 411 738 q 465 738 511 724 q 558 710 597 682 l 653 734 l 695 734 l 709 443 l 658 439 q 626 562 567 624 q 508 687 425 687 q 327 687 282 611 q 237 536 237 367 q 237 195 284 121 q 331 48 439 48 q 523 48 582 103 q 640 158 668 263 z"},"W":{"x_min":0,"x_max":954,"ha":954,"o":"m 410 626 q 401 652 391 661 q 381 670 365 670 l 348 670 l 348 722 l 644 722 l 644 670 l 628 670 q 605 670 595 663 q 585 656 585 640 q 585 632 586 624 q 588 616 591 608 l 700 258 l 794 560 q 799 576 802 591 q 804 606 804 619 q 804 646 789 658 q 773 670 739 670 l 710 670 l 710 722 l 963 722 l 963 670 l 960 670 q 924 670 904 652 q 884 634 869 586 l 681 -15 l 611 -15 l 484 399 l 352 -15 l 280 -15 l 60 630 q 52 654 42 662 q 33 670 15 670 l -9 670 l -9 722 l 302 722 l 302 670 l 283 670 q 263 670 253 663 q 243 656 243 641 q 243 635 245 627 q 247 619 250 608 l 372 249 l 452 501 z"},"A":{"x_min":0,"x_max":762,"ha":762,"o":"m 426 0 l 426 52 l 475 55 q 490 56 496 61 q 503 66 503 78 q 503 83 501 89 q 500 95 496 106 l 451 218 l 195 218 l 172 165 q 167 153 164 139 q 161 125 161 114 q 161 82 185 68 q 208 54 266 52 l 266 0 l -18 0 l -18 52 q 23 59 52 88 q 82 118 111 186 l 345 733 l 420 733 l 696 94 q 706 71 720 62 q 733 54 762 52 l 762 0 z m 327 524 l 222 281 l 426 281 z"},"f":{"x_min":0,"x_max":414,"ha":414,"o":"m 11 412 l 11 475 l 100 475 l 100 495 q 100 612 156 677 q 211 741 312 741 q 382 741 424 712 q 465 684 465 635 q 465 599 443 578 q 421 557 382 557 q 350 557 329 576 q 309 595 309 625 q 309 656 337 681 q 343 687 343 688 q 343 693 338 696 q 333 698 322 698 q 285 698 270 660 q 256 623 256 507 l 256 475 l 382 475 l 382 412 l 256 412 l 256 88 q 256 66 265 58 q 274 50 301 50 l 354 50 l 354 0 l 22 0 l 22 50 l 66 51 q 86 52 93 60 q 100 67 100 88 l 100 412 z"},"Q":{"x_min":0,"x_max":829,"ha":829,"o":"m 472 -13 q 451 -16 436 -17 q 421 -18 410 -18 q 349 -18 293 0 q 236 18 190 52 q 112 109 74 185 q 37 260 37 361 q 37 441 63 510 q 89 579 139 631 q 191 686 259 713 q 328 740 414 740 q 507 740 573 714 q 638 688 693 628 q 743 574 767 506 q 792 438 792 355 q 792 254 750 177 q 708 100 622 41 q 641 -25 664 -61 q 687 -97 710 -97 q 731 -97 741 -78 q 752 -60 753 -21 l 807 -21 q 807 -100 759 -146 q 710 -192 628 -192 q 553 -192 512 -150 q 471 -108 471 -31 q 471 -28 472 -22 q 472 -16 472 -13 z m 256 178 q 265 232 305 262 q 344 292 406 292 q 461 292 503 261 q 545 230 570 173 q 581 212 586 259 q 592 307 592 361 q 592 525 548 605 q 504 684 414 684 q 324 684 280 604 q 236 524 236 361 q 236 292 241 248 q 246 203 256 178 z m 475 50 q 476 63 477 73 q 477 83 477 92 q 477 161 454 197 q 432 234 389 234 q 346 234 321 208 q 296 183 296 138 q 296 92 329 65 q 362 38 419 38 q 435 38 449 41 q 463 44 475 50 z"},"w":{"x_min":0,"x_max":851,"ha":851,"o":"m 276 425 l 260 423 q 242 421 235 417 q 228 412 228 402 q 228 398 230 391 q 232 383 238 369 l 326 160 l 395 323 l 372 385 q 363 409 351 417 q 339 425 315 425 l 310 425 l 310 476 l 583 476 l 583 425 l 562 423 q 542 421 537 417 q 531 413 531 400 q 531 391 539 371 l 540 369 l 624 159 l 701 338 q 706 348 708 359 q 711 371 711 380 q 711 399 697 410 q 684 421 658 423 l 633 425 l 633 476 l 857 476 l 857 423 q 825 421 808 408 q 790 395 772 354 l 611 -10 l 533 -10 l 427 248 l 313 -10 l 235 -10 l 63 385 q 50 412 39 418 q 28 425 6 425 l 1 425 l 1 476 l 276 476 z"},"-":{"x_min":0,"x_max":329,"ha":329,"o":"m 44 189 l 44 308 l 284 308 l 284 189 z"},"E":{"x_min":0,"x_max":759,"ha":759,"o":"m 22 0 l 22 53 l 72 53 q 102 53 113 63 q 123 73 123 105 l 123 617 q 123 650 113 660 q 102 670 72 670 l 22 670 l 22 722 l 674 722 l 682 462 l 633 462 q 606 577 548 624 q 490 671 373 671 q 324 671 312 661 q 300 650 300 617 l 300 400 l 314 400 q 379 400 411 431 q 443 462 456 539 l 506 539 l 506 208 l 456 208 q 443 284 411 315 q 379 346 314 346 l 300 346 l 300 105 q 300 72 313 61 q 326 51 376 51 q 503 51 567 101 q 630 152 659 275 l 709 271 l 696 0 z"},"s":{"x_min":0,"x_max":486,"ha":486,"o":"m 35 176 l 78 176 q 109 108 156 72 q 204 36 262 36 q 300 36 323 53 q 345 70 345 98 q 345 124 325 137 q 306 151 241 164 q 130 186 85 224 q 40 262 40 331 q 40 407 91 449 q 141 491 234 491 q 269 491 300 482 q 331 474 356 457 l 395 484 l 436 484 l 441 324 l 394 324 q 368 380 326 412 q 285 444 237 444 q 201 444 178 428 q 155 412 155 387 q 155 341 273 320 q 288 317 295 316 q 379 300 421 259 q 463 218 463 153 q 463 74 410 28 q 357 -18 265 -18 q 224 -18 188 -8 q 151 1 121 20 l 78 -10 l 38 -10 z"},">":{"x_min":0,"x_max":833,"ha":833,"o":"m 129 583 l 704 347 l 704 250 l 129 13 l 129 120 l 566 298 l 129 476 z"},"l":{"x_min":0,"x_max":355,"ha":355,"o":"m 99 641 q 99 665 89 672 q 79 680 46 680 q 42 680 31 680 q 21 679 14 679 l 14 728 l 256 740 l 256 88 q 256 67 263 59 q 270 52 290 51 l 330 50 l 330 0 l 21 0 l 21 50 l 65 51 q 85 52 92 60 q 99 67 99 88 z"},"8":{"x_min":0,"x_max":583,"ha":583,"o":"m 348 428 q 374 450 387 480 q 401 509 401 544 q 401 596 371 624 q 341 653 288 653 q 237 653 208 627 q 178 601 178 556 q 178 514 217 484 q 255 455 348 428 z m 222 290 q 191 275 174 240 q 156 206 156 162 q 156 100 190 67 q 225 33 289 33 q 351 33 388 65 q 425 98 425 151 q 425 230 247 283 q 230 288 222 290 z m 400 410 q 476 383 511 335 q 547 287 547 212 q 547 107 475 44 q 403 -18 281 -18 q 161 -18 95 30 q 29 78 29 164 q 29 225 67 264 q 105 303 174 312 q 120 337 90 383 q 60 430 60 489 q 60 583 128 644 q 196 705 304 705 q 402 705 462 661 q 522 618 522 547 q 522 499 490 463 q 458 427 400 410 z"},"\\":{"x_min":0,"x_max":278,"ha":278,"o":"m 51 723 l 286 -93 l 231 -93 l -4 723 z"},"e":{"x_min":0,"x_max":571,"ha":571,"o":"m 495 165 l 539 144 q 516 65 457 25 q 398 -16 307 -16 q 183 -16 106 54 q 30 124 30 237 q 30 350 106 421 q 182 491 304 491 q 416 491 478 427 q 540 362 540 245 l 540 232 l 204 232 l 204 225 q 204 138 239 94 q 274 50 343 50 q 393 50 431 79 q 469 108 495 165 z m 204 284 l 358 284 q 374 284 380 291 q 386 298 386 316 q 386 380 367 410 q 348 439 306 439 q 258 439 233 401 q 208 362 204 284 z"},"b":{"x_min":0,"x_max":648,"ha":648,"o":"m 342 416 q 291 416 266 365 q 241 315 241 212 q 241 125 267 80 q 292 35 342 35 q 393 35 417 83 q 442 130 442 230 q 442 324 417 370 q 392 416 342 416 z m 76 -16 q 81 12 83 40 q 86 68 86 97 l 86 641 q 86 665 76 672 q 65 680 32 680 q 28 680 17 680 q 6 679 0 679 l 0 728 l 241 740 l 241 422 q 272 457 308 474 q 344 490 389 490 q 490 490 553 421 q 615 352 615 240 q 615 124 546 53 q 478 -17 365 -17 q 306 -17 261 4 q 217 25 188 67 l 124 -16 z"},"%":{"x_min":0,"x_max":845,"ha":845,"o":"m 671 373 q 732 373 766 340 q 800 308 800 250 q 800 207 781 158 q 763 109 729 65 q 697 24 662 3 q 626 -17 586 -17 q 524 -17 487 21 q 450 58 450 121 q 450 163 467 205 q 484 248 518 287 q 554 329 593 351 q 632 373 671 373 z m 720 324 q 698 324 676 305 q 654 286 627 244 q 591 186 571 138 q 551 90 551 61 q 551 38 564 25 q 578 12 602 12 q 630 12 657 32 q 685 53 712 93 q 741 135 756 178 q 772 220 772 254 q 772 285 757 305 q 743 324 720 324 z m 364 614 q 346 617 333 626 q 319 636 310 651 q 291 649 270 629 q 250 608 223 563 q 188 504 168 455 q 149 406 149 379 q 149 359 163 345 q 177 332 198 332 q 225 332 252 353 q 280 375 307 415 q 336 459 352 503 q 367 547 367 584 q 367 592 366 599 q 366 607 364 614 z m 392 606 q 394 601 394 595 q 395 589 395 576 q 395 528 377 479 q 359 430 327 387 q 296 347 259 325 q 221 304 182 304 q 123 304 85 343 q 47 382 47 443 q 47 484 64 526 q 82 568 116 608 q 153 651 194 674 q 235 696 277 696 q 310 696 334 683 q 359 670 374 646 q 390 634 408 629 q 426 623 447 623 q 492 623 537 646 q 582 669 606 705 l 651 705 l 240 -17 l 191 -17 l 555 628 q 527 612 500 604 q 472 596 446 596 q 429 596 416 599 q 402 601 392 606 z"},"m":{"x_min":0,"x_max":957,"ha":957,"o":"m 864 89 q 864 67 871 60 q 878 52 897 51 l 939 50 l 939 0 l 652 0 l 652 50 l 682 52 q 701 53 708 61 q 715 69 715 89 l 715 298 q 715 349 699 373 q 683 397 649 397 q 601 397 580 358 q 559 319 559 226 l 559 88 q 559 67 565 60 q 571 53 592 51 l 617 50 l 617 0 l 348 0 l 348 50 l 376 52 q 396 54 403 61 q 409 69 409 89 l 409 298 q 409 350 393 373 q 377 397 343 397 q 295 397 274 359 q 253 321 253 229 l 253 88 q 253 67 259 60 q 265 53 286 51 l 314 50 l 314 0 l 21 0 l 21 50 l 67 51 q 86 52 93 60 q 100 67 100 88 l 100 387 q 100 411 89 419 q 79 427 45 427 q 41 427 31 426 q 21 426 15 426 l 15 475 l 247 486 l 247 403 q 279 446 318 466 q 356 486 406 486 q 457 486 494 464 q 530 442 548 400 q 583 445 622 466 q 661 486 712 486 q 791 486 827 448 q 864 410 864 328 z"},"#":{"x_min":0,"x_max":769,"ha":769,"o":"m 345 415 l 301 294 l 428 294 l 471 415 z m 347 715 l 452 715 l 380 512 l 504 512 l 577 715 l 681 715 l 609 512 l 747 512 l 711 415 l 575 415 l 532 294 l 675 294 l 640 198 l 498 198 l 426 -5 l 321 -5 l 393 198 l 269 198 l 196 -5 l 91 -5 l 163 198 l 22 198 l 58 294 l 198 294 l 241 415 l 93 415 l 129 512 l 275 512 z"},",":{"x_min":0,"x_max":292,"ha":292,"o":"m 82 -171 l 59 -134 q 104 -104 126 -74 q 147 -44 147 -13 l 147 -5 q 139 -7 133 -7 q 127 -8 121 -8 q 88 -8 68 14 q 47 37 47 72 q 47 116 73 142 q 99 169 141 169 q 188 169 214 138 q 241 106 241 51 q 241 -10 202 -64 q 163 -119 82 -171 z"},"n":{"x_min":0,"x_max":681,"ha":681,"o":"m 19 0 l 19 50 l 66 51 q 86 52 93 60 q 100 67 100 88 l 100 387 q 100 411 89 419 q 79 427 45 427 q 41 427 31 426 q 21 426 15 426 l 15 475 l 250 486 l 250 390 q 286 439 329 463 q 372 486 427 486 q 510 486 550 443 q 590 401 590 313 l 590 88 q 590 67 597 60 q 604 52 624 51 l 671 50 l 671 0 l 366 0 l 366 50 l 400 52 q 421 53 427 61 q 434 68 434 89 l 434 298 q 434 350 416 374 q 398 397 359 397 q 305 397 280 360 q 256 323 256 238 l 256 88 q 256 67 263 60 q 270 52 290 51 l 325 50 l 325 0 z"},"h":{"x_min":0,"x_max":681,"ha":681,"o":"m 19 0 l 19 50 l 62 51 q 83 52 90 60 q 97 67 97 88 l 97 641 q 97 665 87 672 q 77 680 45 680 q 41 680 30 680 q 20 679 13 679 l 13 728 l 255 740 l 255 398 q 289 443 331 464 q 373 486 427 486 q 511 486 551 442 q 591 399 591 308 l 591 88 q 591 67 598 59 q 605 52 625 51 l 666 50 l 666 0 l 366 0 l 366 50 l 399 52 q 420 53 427 61 q 433 68 433 89 l 433 298 q 433 350 415 374 q 397 397 358 397 q 303 397 278 358 q 253 320 253 236 l 253 88 q 253 67 260 60 q 268 52 288 51 l 324 50 l 324 0 z"},"z":{"x_min":0,"x_max":537,"ha":537,"o":"m 225 52 l 286 52 q 362 52 392 79 q 422 106 448 191 l 496 191 l 485 0 l 34 0 l 34 46 l 307 426 l 216 426 q 168 426 142 397 q 116 368 100 296 l 51 296 l 61 476 l 495 476 l 495 431 z"},"B":{"x_min":0,"x_max":778,"ha":778,"o":"m 17 0 l 17 53 l 71 53 q 101 53 112 63 q 122 73 122 105 l 122 617 q 122 650 112 660 q 101 670 71 670 l 17 670 l 17 722 l 445 722 q 569 722 635 678 q 700 633 700 550 q 700 476 650 434 q 599 391 497 379 q 609 371 672 321 q 735 271 735 192 q 735 98 657 49 q 580 0 431 0 z m 299 125 q 299 79 312 67 q 324 54 380 54 q 472 54 510 88 q 549 123 549 202 q 549 238 537 267 q 525 295 503 313 q 483 329 452 336 q 422 343 348 343 l 334 343 q 320 343 312 343 q 305 342 299 341 z m 299 615 l 299 400 q 307 399 316 398 q 325 398 339 398 q 442 398 482 429 q 522 459 522 535 q 522 609 488 640 q 454 670 369 670 q 322 670 311 660 q 299 651 299 615 z"},"K":{"x_min":0,"x_max":814,"ha":814,"o":"m 21 0 l 21 53 l 71 53 q 101 53 112 63 q 122 73 122 105 l 122 617 q 122 650 112 660 q 101 670 71 670 l 21 670 l 21 722 l 399 722 l 399 670 l 350 670 q 320 670 309 660 q 299 649 299 617 l 299 346 l 526 589 q 541 604 545 614 q 550 623 550 633 q 550 651 533 661 q 516 670 483 670 l 454 670 l 454 722 l 790 722 l 790 670 q 742 669 705 653 q 668 636 625 592 l 502 466 l 737 90 q 749 71 765 62 q 781 53 803 53 l 817 53 l 817 0 l 454 0 l 454 53 l 481 53 q 509 53 523 59 q 537 65 537 77 q 537 88 521 114 l 520 115 l 381 342 l 299 254 l 299 105 q 299 72 309 62 q 319 53 349 53 l 399 53 l 399 0 z"},"R":{"x_min":0,"x_max":812,"ha":812,"o":"m 299 347 l 299 105 q 299 75 309 64 q 319 53 349 53 l 403 53 l 403 0 l 17 0 l 17 53 l 71 53 q 102 53 112 64 q 122 75 122 105 l 122 617 q 122 648 112 659 q 101 670 71 670 l 17 670 l 17 722 l 458 722 q 590 722 659 676 q 727 629 727 539 q 727 459 668 413 q 609 366 504 362 l 504 355 q 559 354 599 321 q 639 289 658 230 q 668 200 678 146 q 692 68 722 68 q 743 68 753 92 q 763 115 764 166 l 815 166 l 815 158 q 815 74 771 28 q 727 -18 648 -18 q 594 -18 558 -1 q 521 16 503 50 q 483 86 483 166 q 483 191 482 205 q 477 294 448 321 q 419 348 339 348 q 323 348 315 348 q 307 348 299 347 z m 299 615 l 299 400 q 307 399 316 398 q 324 398 341 398 q 455 398 499 429 q 544 460 544 536 q 544 610 507 640 q 470 670 376 670 q 325 670 312 660 q 299 651 299 615 z"},"T":{"x_min":0,"x_max":720,"ha":720,"o":"m 656 450 q 642 555 599 615 q 556 675 494 675 q 468 675 458 665 q 449 654 449 624 l 449 105 q 449 73 459 63 q 470 53 500 53 l 549 53 l 549 0 l 170 0 l 170 53 l 220 53 q 250 53 260 63 q 270 72 270 105 l 270 624 q 270 655 261 665 q 252 675 226 675 q 165 675 121 615 q 78 555 64 450 l 14 450 l 30 722 l 689 722 l 705 450 z"},"P":{"x_min":0,"x_max":759,"ha":759,"o":"m 301 105 q 301 73 310 63 q 320 53 350 53 l 413 53 l 413 0 l 17 0 l 17 53 l 71 53 q 101 53 112 63 q 122 73 122 105 l 122 617 q 122 650 112 660 q 101 670 71 670 l 17 670 l 17 722 l 458 722 q 593 722 663 670 q 733 618 733 517 q 733 411 652 360 q 570 309 401 309 q 362 309 341 309 q 320 310 301 310 z m 301 607 l 301 367 q 311 365 323 365 q 335 364 351 364 q 460 364 501 398 q 542 432 542 517 q 542 601 506 635 q 470 670 379 670 q 328 670 314 659 q 301 647 301 607 z"},"|":{"x_min":0,"x_max":500,"ha":500,"o":"m 200 764 l 301 764 l 301 -236 l 200 -236 z"},"t":{"x_min":0,"x_max":437,"ha":437,"o":"m 406 189 q 406 186 406 178 q 407 171 407 168 q 407 80 361 31 q 314 -18 231 -18 q 155 -18 124 18 q 92 53 92 143 l 92 416 l 20 416 l 20 470 q 94 475 135 527 q 176 580 180 676 l 249 676 l 249 475 l 384 475 l 384 416 l 249 416 l 249 151 q 249 100 258 83 q 268 67 291 67 q 320 67 335 97 q 350 127 351 189 z"},"M":{"x_min":0,"x_max":978,"ha":978,"o":"m 181 642 l 181 181 q 181 106 206 80 q 230 54 295 53 l 295 0 l 7 0 l 7 53 q 68 56 90 81 q 113 106 113 181 l 113 616 q 113 649 102 659 q 91 670 63 670 l 12 670 l 12 722 l 335 722 l 491 290 l 639 722 l 956 722 l 956 670 l 906 670 q 876 670 865 660 q 855 649 855 617 l 855 105 q 855 73 865 63 q 875 53 906 53 l 956 53 l 956 0 l 583 0 l 583 53 l 628 53 q 658 53 669 63 q 679 73 679 105 l 679 646 l 462 0 l 412 0 z"},"g":{"x_min":0,"x_max":600,"ha":600,"o":"m 153 -18 q 104 -6 80 18 q 55 42 55 78 q 55 118 88 143 q 121 169 182 178 q 122 194 90 231 q 58 269 58 322 q 58 398 123 446 q 187 493 291 493 q 328 493 360 486 q 393 479 424 464 l 441 489 q 461 517 489 532 q 517 548 547 548 q 580 548 601 529 q 622 510 622 480 q 622 451 606 432 q 590 414 564 414 q 546 414 534 422 q 521 429 513 445 q 510 451 509 459 q 508 472 499 472 q 490 472 479 464 q 469 455 462 442 q 499 417 516 387 q 533 358 533 320 q 533 244 471 200 q 410 157 300 157 q 291 157 274 158 q 257 159 250 159 q 227 159 214 151 q 201 142 201 127 q 201 110 213 103 q 224 96 253 96 l 325 96 q 382 96 425 93 q 467 89 483 83 q 524 68 547 34 q 570 0 570 -45 q 570 -124 495 -167 q 420 -209 280 -209 q 161 -209 100 -183 q 40 -157 40 -106 q 40 -72 69 -50 q 99 -27 153 -18 z m 202 -46 q 183 -54 175 -64 q 167 -74 167 -90 q 167 -123 195 -138 q 224 -154 283 -154 q 364 -154 403 -139 q 442 -124 442 -93 q 442 -68 421 -57 q 400 -46 349 -46 z m 219 324 q 219 263 238 234 q 256 206 296 206 q 336 206 355 235 q 374 263 374 324 q 374 384 355 413 q 336 442 296 442 q 256 442 238 413 q 219 384 219 324 z"},"j":{"x_min":0,"x_max":351,"ha":351,"o":"m 96 650 q 96 687 122 713 q 147 739 184 739 q 219 739 245 713 q 271 687 271 650 q 271 613 245 587 q 220 560 184 560 q 147 560 122 586 q 96 612 96 650 z m 267 85 q 267 5 260 -35 q 253 -75 236 -104 q 208 -154 159 -181 q 111 -208 52 -208 q -11 -208 -48 -181 q -84 -154 -84 -108 q -84 -74 -62 -53 q -41 -32 -6 -32 q 25 -32 44 -51 q 62 -69 62 -101 q 62 -121 51 -137 q 40 -153 40 -155 q 40 -159 45 -162 q 49 -164 58 -164 q 90 -164 101 -131 q 113 -98 113 27 l 113 85 l 113 387 q 113 411 103 418 q 92 426 54 426 l 16 426 l 16 475 l 267 486 z"},"i":{"x_min":0,"x_max":367,"ha":367,"o":"m 96 650 q 96 687 122 713 q 147 739 184 739 q 219 739 245 713 q 271 687 271 650 q 271 613 245 587 q 220 560 184 560 q 147 560 122 586 q 96 612 96 650 z m 267 88 q 267 67 274 59 q 281 52 301 51 l 341 50 l 341 0 l 32 0 l 32 50 l 76 51 q 96 52 103 60 q 110 67 110 88 l 110 387 q 110 411 99 419 q 88 427 55 427 q 51 427 41 426 q 31 426 25 426 l 25 475 l 267 486 z"},"y":{"x_min":0,"x_max":582,"ha":582,"o":"m 6 476 l 290 476 l 290 427 l 271 427 q 255 427 245 421 q 236 415 236 405 q 236 398 239 388 q 241 377 245 370 l 351 158 l 436 353 q 439 360 441 370 q 443 379 443 387 q 443 407 430 417 q 417 427 391 427 l 365 427 l 365 476 l 590 476 l 590 427 q 557 423 540 411 q 523 399 509 367 l 330 -24 q 283 -128 235 -168 q 187 -209 117 -209 q 64 -209 33 -183 q 1 -157 1 -114 q 1 -78 26 -53 q 52 -29 89 -29 q 121 -29 142 -48 q 163 -67 163 -95 q 163 -104 159 -115 q 155 -127 155 -130 q 155 -134 159 -137 q 163 -140 170 -140 q 192 -140 217 -113 q 242 -86 263 -39 l 272 -19 l 71 371 q 53 405 40 416 q 27 426 6 427 z"},"@":{"x_min":0,"x_max":986,"ha":986,"o":"m 574 156 q 544 107 509 83 q 473 60 430 60 q 361 60 322 104 q 282 149 282 227 q 282 283 307 335 q 331 388 377 431 q 411 462 449 479 q 488 495 528 495 q 575 495 601 473 q 628 451 636 406 l 660 486 l 753 486 l 668 184 l 667 181 q 660 152 660 138 q 660 115 670 102 q 680 89 697 89 q 713 89 738 101 q 764 113 786 132 q 836 175 863 238 q 890 301 890 377 q 890 511 798 595 q 706 678 559 678 q 492 678 431 660 q 371 641 320 605 q 235 546 190 454 q 144 363 144 251 q 144 87 247 -9 q 350 -105 523 -105 q 604 -105 679 -80 q 754 -56 829 -4 l 848 -29 q 774 -84 693 -112 q 611 -139 523 -139 q 432 -139 353 -117 q 275 -94 218 -52 q 144 3 104 84 q 65 165 65 261 q 65 337 90 407 q 116 477 165 536 q 236 621 334 667 q 433 712 547 712 q 717 712 820 620 q 922 527 922 374 q 922 295 893 228 q 864 160 810 111 q 781 85 748 72 q 715 58 681 58 q 633 58 605 83 q 578 109 574 156 z m 546 463 q 516 463 491 441 q 466 419 442 371 q 414 315 399 266 q 385 217 385 177 q 385 138 402 115 q 418 93 447 93 q 478 93 508 123 q 537 153 564 212 q 583 257 595 302 q 606 348 606 382 q 606 421 590 442 q 575 463 546 463 z"},".":{"x_min":0,"x_max":292,"ha":292,"o":"m 145 174 q 183 174 211 146 q 239 119 239 80 q 239 42 211 14 q 184 -14 145 -14 q 107 -14 79 14 q 52 42 52 80 q 52 118 80 146 q 107 174 145 174 z"},"p":{"x_min":0,"x_max":653,"ha":653,"o":"m 247 -120 q 247 -141 254 -149 q 262 -157 281 -157 l 337 -157 l 337 -208 l 15 -208 l 15 -159 l 57 -157 q 77 -156 84 -148 q 91 -141 91 -120 l 91 387 q 91 411 80 419 q 69 427 36 427 q 32 427 22 426 q 12 426 6 426 l 6 475 l 241 486 l 241 404 q 271 446 312 466 q 352 486 407 486 q 500 486 560 417 q 621 348 621 241 q 621 131 555 57 q 489 -17 393 -17 q 349 -17 314 -1 q 278 14 247 47 z m 243 236 q 243 146 271 98 q 299 50 352 50 q 399 50 424 97 q 449 144 449 232 q 449 323 425 369 q 401 414 353 414 q 299 414 271 369 q 243 323 243 236 z"},"X":{"x_min":0,"x_max":722,"ha":722,"o":"m 314 271 l 238 176 q 222 155 214 137 q 206 120 206 105 q 206 76 231 63 q 256 51 316 51 l 316 0 l -12 0 l -12 51 q 65 58 146 161 q 154 171 158 176 l 278 326 l 60 631 q 42 657 29 664 q 16 672 -4 672 l -7 672 l -7 722 l 341 722 l 341 670 l 316 670 q 294 670 282 664 q 270 658 270 648 q 270 643 273 636 q 276 629 282 621 l 391 467 l 475 573 q 486 587 491 598 q 496 609 496 619 q 496 646 474 658 q 452 670 400 670 l 400 722 l 706 722 l 706 670 q 630 670 565 585 l 560 579 l 429 411 l 643 106 q 663 78 681 64 q 699 51 717 51 l 733 51 l 733 0 l 375 0 l 375 51 q 415 54 429 60 q 443 65 443 78 q 443 88 424 115 l 423 116 z"},"*":{"x_min":0,"x_max":500,"ha":500,"o":"m 242 544 q 240 586 217 633 q 195 679 195 692 q 195 714 210 728 q 226 742 250 742 q 274 742 289 728 q 304 713 304 691 q 304 681 282 635 q 261 588 257 545 q 277 556 293 573 q 310 589 326 613 q 328 616 333 623 q 361 665 390 665 q 410 665 426 647 q 442 628 442 606 q 442 582 428 571 q 414 560 369 556 q 333 553 310 547 q 286 542 266 531 q 284 521 306 515 q 329 509 370 506 q 410 503 426 491 q 442 479 442 453 q 442 430 426 412 q 410 395 388 395 q 360 395 327 444 l 325 447 q 306 475 291 491 q 275 507 258 517 q 260 474 282 427 q 305 380 305 368 q 305 346 290 333 q 275 319 250 319 q 225 319 210 332 q 196 346 196 369 q 196 380 218 427 q 240 475 243 516 q 224 504 207 488 q 190 471 174 447 q 172 444 168 438 q 141 396 109 396 q 89 396 73 414 q 57 432 57 454 q 57 475 72 488 q 87 501 114 504 q 118 504 125 505 q 197 510 234 530 q 193 552 116 556 q 112 556 110 556 q 86 558 72 571 q 57 585 57 606 q 57 630 73 648 q 90 665 113 665 q 140 665 167 624 q 172 616 174 613 q 192 587 208 571 q 224 555 242 544 z"},"Y":{"x_min":0,"x_max":713,"ha":713,"o":"m 433 722 l 725 722 l 725 669 q 686 669 658 651 q 629 633 605 593 l 443 321 l 443 105 q 443 73 453 63 q 464 53 494 53 l 556 53 l 556 0 l 154 0 l 154 53 l 214 53 q 244 53 255 63 q 265 73 265 105 l 265 305 l 71 612 q 48 649 31 659 q 15 670 -11 670 l -22 670 l -22 722 l 339 722 l 339 670 l 310 670 q 288 670 277 664 q 267 658 267 644 q 267 633 302 574 q 336 516 414 398 l 506 563 q 518 584 522 597 q 527 610 527 619 q 527 644 510 657 q 494 670 462 670 l 433 670 z"},"c":{"x_min":0,"x_max":551,"ha":551,"o":"m 476 176 l 527 160 q 504 74 444 29 q 385 -16 294 -16 q 177 -16 103 54 q 30 125 30 237 q 30 351 108 421 q 186 491 314 491 q 404 491 461 454 q 517 416 517 357 q 517 314 492 289 q 467 264 424 264 q 389 264 365 286 q 342 309 342 341 q 342 370 358 391 q 375 412 375 412 q 375 423 359 432 q 343 440 319 440 q 258 440 230 394 q 201 348 201 251 q 201 152 235 101 q 269 51 335 51 q 386 51 421 82 q 457 113 476 176 z"},"!":{"x_min":0,"x_max":315,"ha":315,"o":"m 134 221 q 131 298 123 362 q 115 426 100 484 q 97 497 88 524 q 66 594 66 636 q 66 686 89 712 q 112 738 157 738 q 201 738 225 712 q 249 686 249 637 q 249 594 223 511 q 216 488 213 476 q 200 429 192 366 q 184 304 181 221 z m 158 174 q 196 174 224 146 q 252 119 252 80 q 252 42 224 14 q 197 -14 158 -14 q 120 -14 92 14 q 65 42 65 80 q 65 118 93 146 q 121 174 158 174 z"},"/":{"x_min":0,"x_max":278,"ha":278,"o":"m 51 -93 l -4 -93 l 231 723 l 286 723 z"},"[":{"x_min":0,"x_max":407,"ha":407,"o":"m 84 722 l 341 722 l 341 679 l 204 679 l 204 -72 l 341 -72 l 341 -115 l 84 -115 z"},"6":{"x_min":0,"x_max":583,"ha":583,"o":"m 384 194 q 384 276 363 315 q 343 353 299 353 q 255 353 234 314 q 213 276 213 194 q 213 112 234 73 q 255 34 299 34 q 343 34 363 73 q 384 111 384 194 z m 207 356 q 237 392 273 409 q 310 427 355 427 q 444 427 499 367 q 554 308 554 212 q 554 114 484 48 q 413 -17 306 -17 q 180 -17 109 72 q 38 161 38 319 q 38 497 123 600 q 208 704 352 704 q 433 704 484 667 q 535 629 535 571 q 535 526 511 501 q 487 476 444 476 q 402 476 377 498 q 353 519 353 556 q 353 583 372 605 q 390 628 390 632 q 390 644 378 650 q 366 656 343 656 q 277 656 242 579 q 207 503 207 356 z"},"r":{"x_min":0,"x_max":514,"ha":514,"o":"m 19 0 l 19 50 l 66 51 q 86 52 93 60 q 100 67 100 88 l 100 387 q 100 411 89 419 q 79 427 45 427 q 41 427 31 426 q 21 426 15 426 l 15 475 l 238 486 l 238 348 q 267 416 308 450 q 349 485 401 485 q 449 485 479 458 q 509 431 509 389 q 509 348 487 323 q 464 299 428 299 q 395 299 373 321 q 352 342 352 377 q 352 391 356 402 q 361 414 370 425 q 314 407 285 348 q 256 289 256 194 l 256 88 q 256 67 263 60 q 270 52 290 51 l 354 50 l 354 0 z"},"2":{"x_min":0,"x_max":583,"ha":583,"o":"m 21 0 l 21 36 q 75 110 161 205 q 247 299 258 312 q 316 380 336 427 q 356 474 356 530 q 356 588 329 619 q 301 650 250 650 q 205 650 173 628 q 140 607 140 581 q 140 571 159 563 q 165 561 168 559 q 197 545 211 525 q 225 505 225 477 q 225 439 202 415 q 179 391 142 391 q 97 391 70 423 q 44 454 44 509 q 44 596 111 650 q 179 703 291 703 q 396 703 461 650 q 526 597 526 512 q 526 447 493 397 q 460 347 379 290 q 353 271 302 239 q 208 177 171 144 l 391 144 q 440 144 453 161 q 466 178 478 263 l 531 263 l 508 0 q 442 2 382 4 q 322 5 267 5 q 212 5 152 4 q 91 2 21 0 z"},"{":{"x_min":0,"x_max":500,"ha":500,"o":"m 416 740 l 416 710 q 357 709 335 684 q 314 658 314 581 l 314 516 q 314 406 288 366 q 262 326 192 310 q 262 294 288 255 q 314 215 314 105 l 314 39 q 314 -38 335 -63 q 357 -89 416 -90 l 416 -119 q 301 -119 260 -84 q 218 -48 218 50 l 218 144 q 218 225 190 255 q 163 285 87 292 l 87 329 q 163 336 190 366 q 218 396 218 477 l 218 571 q 218 669 260 705 q 301 740 416 740 z"},"9":{"x_min":0,"x_max":583,"ha":583,"o":"m 198 492 q 198 410 219 371 q 239 333 283 333 q 327 333 348 372 q 369 410 369 492 q 369 574 348 613 q 327 652 283 652 q 239 652 219 613 q 198 575 198 492 z m 375 330 q 345 294 309 276 q 272 259 227 259 q 138 259 83 318 q 28 378 28 474 q 28 573 98 638 q 169 704 276 704 q 402 704 473 615 q 544 525 544 367 q 544 189 459 86 q 374 -18 230 -18 q 149 -18 98 20 q 47 58 47 116 q 47 161 71 186 q 95 210 138 210 q 181 210 205 189 q 229 168 229 131 q 229 104 210 81 q 192 58 192 54 q 192 42 204 36 q 216 30 239 30 q 305 30 340 106 q 375 183 375 330 z"}," ":{"x_min":0,"x_max":292,"ha":292,"o":""},"I":{"x_min":0,"x_max":444,"ha":444,"o":"m 419 722 l 419 670 l 362 670 q 333 670 322 660 q 312 650 312 617 l 312 105 q 312 72 322 63 q 332 53 362 53 l 419 53 l 419 0 l 26 0 l 26 53 l 81 53 q 111 53 122 63 q 132 73 132 105 l 132 617 q 132 650 122 660 q 111 670 81 670 l 26 670 l 26 722 z"},"H":{"x_min":0,"x_max":868,"ha":868,"o":"m 466 53 l 516 53 q 546 53 556 63 q 566 72 566 105 l 566 340 l 301 340 l 301 105 q 301 73 311 63 q 322 53 352 53 l 402 53 l 402 0 l 21 0 l 21 53 l 72 53 q 102 53 112 63 q 122 72 122 105 l 122 617 q 122 650 112 660 q 102 670 72 670 l 21 670 l 21 722 l 402 722 l 402 670 l 352 670 q 322 670 312 660 q 301 649 301 617 l 301 405 l 566 405 l 566 617 q 566 650 556 660 q 545 670 516 670 l 466 670 l 466 722 l 847 722 l 847 670 l 796 670 q 767 670 756 660 q 746 650 746 617 l 746 105 q 746 72 756 63 q 766 53 796 53 l 847 53 l 847 0 l 466 0 z"},"4":{"x_min":0,"x_max":583,"ha":583,"o":"m 305 248 l 305 500 l 103 248 z m 209 0 l 209 55 l 247 55 q 285 55 295 64 q 305 72 305 113 l 305 181 l 33 181 l 33 256 l 396 702 l 465 702 q 462 651 460 608 q 459 565 459 529 l 459 248 l 558 248 l 558 181 l 459 181 l 459 113 q 459 72 469 64 q 479 55 518 55 l 545 55 l 545 0 z"},"~":{"x_min":0,"x_max":833,"ha":833,"o":"m 747 392 l 747 284 q 696 250 651 233 q 606 217 562 217 q 540 217 517 221 q 495 225 472 232 q 460 236 438 244 q 331 281 275 281 q 233 281 188 262 q 143 244 87 204 l 87 312 q 139 347 187 365 q 234 382 276 382 q 333 382 418 354 l 420 353 q 429 350 447 344 q 522 317 564 317 q 605 317 649 335 q 693 353 747 392 z"},"D":{"x_min":0,"x_max":831,"ha":831,"o":"m 370 722 q 582 722 687 632 q 792 542 792 361 q 792 189 692 94 q 591 0 408 0 l 17 0 l 17 53 l 71 53 q 101 53 112 63 q 122 73 122 105 l 122 617 q 122 650 112 660 q 101 670 71 670 l 17 670 l 17 722 z m 302 623 l 302 102 q 302 75 311 65 q 320 56 347 56 l 416 56 q 515 56 558 127 q 601 198 601 363 q 601 536 553 603 q 505 670 382 670 l 347 670 q 320 670 311 660 q 302 651 302 623 z"},"^":{"x_min":0,"x_max":1000,"ha":1000,"o":"m 442 714 l 557 714 l 797 438 l 742 438 l 499 620 l 256 438 l 201 438 z"},"0":{"x_min":0,"x_max":583,"ha":583,"o":"m 291 652 q 243 652 224 585 q 204 518 204 344 q 204 173 224 104 q 244 35 291 35 q 338 35 359 105 q 379 174 379 344 q 379 515 359 583 q 339 652 291 652 z m 30 344 q 30 506 103 605 q 175 705 292 705 q 410 705 482 607 q 553 509 553 344 q 553 181 481 82 q 409 -17 292 -17 q 175 -17 103 83 q 30 182 30 344 z"},"F":{"x_min":0,"x_max":720,"ha":720,"o":"m 674 722 l 682 462 l 633 462 q 604 576 547 622 q 489 668 373 668 q 324 668 312 658 q 300 647 300 614 l 300 400 l 314 400 q 379 400 411 431 q 443 462 456 539 l 506 539 l 506 208 l 456 208 q 443 284 411 315 q 379 346 314 346 l 300 346 l 300 105 q 300 72 310 63 q 320 53 350 53 l 422 53 l 422 0 l 21 0 l 21 53 l 72 53 q 102 53 113 63 q 123 73 123 105 l 123 617 q 123 650 113 660 q 102 670 72 670 l 21 670 l 21 722 z"},"`":{"x_min":0,"x_max":500,"ha":500,"o":"m 354 545 l 298 545 l 139 624 q 112 638 100 652 q 88 666 88 683 q 88 705 104 720 q 119 736 142 736 q 159 736 177 725 q 194 715 218 689 z"},"k":{"x_min":0,"x_max":653,"ha":653,"o":"m 94 641 q 94 665 84 672 q 74 680 41 680 q 37 680 26 680 q 15 679 9 679 l 9 728 l 251 740 l 251 251 l 371 352 q 387 365 394 375 q 402 386 402 395 q 402 410 388 417 q 374 424 346 424 q 344 424 338 423 q 332 423 329 423 l 329 475 l 623 475 l 623 423 q 585 423 554 413 q 524 403 497 381 l 416 316 l 603 86 q 618 67 631 58 q 644 50 657 50 l 659 50 l 659 0 l 356 0 l 356 50 l 380 51 q 394 52 401 57 q 408 62 408 71 q 408 79 395 96 q 392 100 390 102 l 299 213 l 251 174 l 251 88 q 251 67 258 60 q 265 52 285 51 l 318 50 l 318 0 l 16 0 l 16 50 l 60 51 q 80 52 87 60 q 94 67 94 88 z"},"u":{"x_min":0,"x_max":660,"ha":660,"o":"m 569 87 q 569 63 579 56 q 589 48 622 48 q 626 48 637 48 q 647 49 654 49 l 654 0 l 419 -12 l 419 82 q 385 33 341 8 q 297 -16 241 -16 q 163 -16 121 25 q 79 67 79 144 l 79 387 q 79 411 69 418 q 59 426 26 426 l 3 426 l 3 475 l 239 486 l 239 176 q 239 125 256 101 q 274 78 312 78 q 364 78 388 116 q 413 153 413 232 l 413 387 q 413 411 403 418 q 393 426 355 426 l 322 426 l 322 475 l 569 486 z"},"]":{"x_min":0,"x_max":407,"ha":407,"o":"m 322 -115 l 65 -115 l 65 -72 l 201 -72 l 201 679 l 65 679 l 65 722 l 322 722 z"},"U":{"x_min":0,"x_max":831,"ha":831,"o":"m 398 722 l 398 670 l 348 670 q 318 670 307 660 q 297 649 297 617 l 297 252 q 297 152 339 106 q 380 61 472 61 q 512 61 546 72 q 580 83 602 103 q 629 127 641 165 q 652 203 652 294 l 652 556 q 652 622 629 646 q 605 670 548 670 l 541 670 l 541 722 l 816 722 l 816 670 q 761 665 739 642 q 718 618 718 556 l 718 285 q 718 199 710 161 q 702 124 682 94 q 645 37 580 10 q 514 -18 416 -18 q 269 -18 194 43 q 119 104 119 224 l 119 617 q 119 649 109 660 q 98 670 68 670 l 17 670 l 17 722 z"},"o":{"x_min":0,"x_max":609,"ha":609,"o":"m 30 237 q 30 349 106 420 q 183 491 304 491 q 425 491 502 420 q 579 349 579 237 q 579 125 503 54 q 426 -16 304 -16 q 182 -16 106 54 q 30 125 30 237 z m 203 237 q 203 136 227 90 q 251 43 303 43 q 356 43 380 90 q 405 136 405 237 q 405 339 381 385 q 356 432 304 432 q 251 432 227 385 q 203 339 203 237 z"},"N":{"x_min":0,"x_max":841,"ha":841,"o":"m 16 0 l 16 52 q 78 58 100 83 q 122 107 122 181 l 122 615 l 103 635 q 83 657 67 664 q 51 670 27 670 l 16 670 l 16 722 l 268 722 l 649 272 l 649 542 q 649 620 625 645 q 600 669 530 670 l 530 722 l 824 722 l 824 670 q 764 667 742 642 q 721 617 721 542 l 721 -10 l 658 -10 l 187 548 l 187 181 q 187 106 212 80 q 236 54 303 52 l 303 0 z"},"+":{"x_min":0,"x_max":833,"ha":833,"o":"m 367 596 l 466 596 l 466 347 l 709 347 l 709 250 l 466 250 l 466 0 l 367 0 l 367 250 l 124 250 l 124 347 l 367 347 z"},"G":{"x_min":0,"x_max":830,"ha":830,"o":"m 563 231 q 563 262 552 273 q 542 284 513 284 l 459 284 l 459 336 l 816 336 l 816 284 l 777 284 q 748 284 737 273 q 726 262 726 231 l 726 -17 l 679 -17 l 628 82 q 589 34 528 8 q 466 -18 395 -18 q 335 -18 280 0 q 225 18 179 52 q 109 103 73 181 q 37 260 37 361 q 37 456 75 535 q 113 614 184 669 q 230 705 290 723 q 351 741 422 741 q 484 741 533 727 q 581 712 616 683 l 673 734 l 718 734 l 727 451 l 677 447 q 646 560 581 624 q 517 687 434 687 q 333 687 285 607 q 237 527 237 360 q 237 193 280 116 q 323 39 416 39 q 486 39 525 82 q 563 125 563 203 z"},"q":{"x_min":0,"x_max":642,"ha":642,"o":"m 462 403 l 527 486 l 570 486 q 565 458 562 430 q 560 402 560 373 l 560 -116 q 560 -140 567 -148 q 574 -156 594 -157 l 642 -159 l 642 -208 l 319 -208 l 319 -159 l 374 -157 q 394 -156 401 -149 q 408 -141 408 -120 l 408 59 q 377 18 341 -1 q 305 -20 259 -20 q 158 -20 96 49 q 33 119 33 230 q 33 346 102 416 q 171 487 284 487 q 343 487 387 466 q 430 446 462 403 z m 307 53 q 358 53 383 104 q 408 155 408 258 q 408 344 382 390 q 355 435 306 435 q 255 435 231 388 q 207 340 207 240 q 207 146 232 100 q 257 53 307 53 z"},"d":{"x_min":0,"x_max":653,"ha":653,"o":"m 406 640 q 406 662 398 669 q 390 677 360 677 l 316 677 l 316 728 l 561 740 l 561 83 q 561 59 572 51 q 583 43 616 43 q 620 43 630 43 q 640 44 646 44 l 646 -5 l 411 -16 l 411 66 q 381 24 340 4 q 300 -16 245 -16 q 153 -16 93 53 q 32 122 32 229 q 32 341 98 414 q 164 487 264 487 q 306 487 341 471 q 376 455 406 422 z m 409 234 q 409 329 384 375 q 358 420 306 420 q 254 420 229 375 q 203 330 203 238 q 203 147 228 101 q 252 55 300 55 q 354 55 381 101 q 409 146 409 234 z"},"1":{"x_min":0,"x_max":583,"ha":583,"o":"m 111 0 l 111 55 l 172 55 q 212 55 223 64 q 234 73 234 113 l 234 524 q 234 562 223 573 q 213 583 172 583 l 103 583 l 103 637 q 196 640 259 657 q 321 675 351 706 l 393 706 l 393 113 q 393 74 403 65 q 414 55 454 55 l 513 55 l 513 0 z"},"5":{"x_min":0,"x_max":583,"ha":583,"o":"m 95 381 q 105 465 112 547 q 118 629 119 708 l 149 708 q 205 698 258 693 q 311 688 362 688 q 404 688 442 694 q 479 700 511 711 l 522 695 q 500 620 445 581 q 391 543 305 543 q 273 543 239 547 q 204 550 168 557 q 167 528 164 496 q 161 464 157 428 q 195 444 231 451 q 268 459 303 459 q 411 459 478 396 q 546 334 546 234 q 546 120 471 51 q 396 -18 270 -18 q 170 -18 104 30 q 38 77 38 148 q 38 198 65 227 q 91 256 136 256 q 176 256 199 233 q 223 210 223 173 q 223 149 214 133 q 206 116 187 104 q 183 102 174 97 q 157 89 157 80 q 157 64 182 51 q 207 37 240 37 q 309 37 342 87 q 376 137 376 238 q 376 316 343 358 q 309 400 247 400 q 224 400 199 391 q 174 383 145 364 q 142 331 132 315 q 122 300 104 300 q 88 300 80 309 q 71 319 71 336 q 71 347 77 358 q 83 369 95 381 z"}}}
